<mxfile host="app.diagrams.net" agent="Mozilla/5.0 (Windows NT 10.0; Win64; x64) AppleWebKit/537.36 (KHTML, like Gecko) Chrome/136.0.0.0 Safari/537.36" version="27.0.6">
  <diagram name="Página-1" id="S6ZorTpsyPrc2-9urVvb">
    <mxGraphModel dx="739" dy="634" grid="1" gridSize="10" guides="1" tooltips="1" connect="1" arrows="1" fold="1" page="1" pageScale="1" pageWidth="827" pageHeight="1169" math="0" shadow="0">
      <root>
        <mxCell id="0" />
        <mxCell id="1" parent="0" />
        <mxCell id="OH_JTZmOgvnirMDcrv2M-3" style="edgeStyle=orthogonalEdgeStyle;rounded=0;orthogonalLoop=1;jettySize=auto;html=1;entryX=0.5;entryY=0;entryDx=0;entryDy=0;endArrow=open;endFill=0;" edge="1" parent="1" source="OH_JTZmOgvnirMDcrv2M-1" target="OH_JTZmOgvnirMDcrv2M-2">
          <mxGeometry relative="1" as="geometry" />
        </mxCell>
        <mxCell id="OH_JTZmOgvnirMDcrv2M-1" value="" style="ellipse;fillColor=strokeColor;html=1;" vertex="1" parent="1">
          <mxGeometry x="370" width="30" height="30" as="geometry" />
        </mxCell>
        <mxCell id="OH_JTZmOgvnirMDcrv2M-6" style="edgeStyle=orthogonalEdgeStyle;shape=connector;rounded=0;orthogonalLoop=1;jettySize=auto;html=1;strokeColor=default;align=center;verticalAlign=middle;fontFamily=Helvetica;fontSize=11;fontColor=default;labelBackgroundColor=default;endArrow=open;endFill=0;" edge="1" parent="1" source="OH_JTZmOgvnirMDcrv2M-2" target="OH_JTZmOgvnirMDcrv2M-4">
          <mxGeometry relative="1" as="geometry" />
        </mxCell>
        <mxCell id="OH_JTZmOgvnirMDcrv2M-2" value="Caixa pergunta se Cliente quer CPF na nota" style="html=1;align=center;verticalAlign=top;rounded=1;absoluteArcSize=1;arcSize=10;dashed=0;whiteSpace=wrap;" vertex="1" parent="1">
          <mxGeometry x="315" y="60" width="140" height="40" as="geometry" />
        </mxCell>
        <mxCell id="OH_JTZmOgvnirMDcrv2M-9" style="edgeStyle=orthogonalEdgeStyle;shape=connector;rounded=0;orthogonalLoop=1;jettySize=auto;html=1;strokeColor=default;align=center;verticalAlign=middle;fontFamily=Helvetica;fontSize=11;fontColor=default;labelBackgroundColor=default;endArrow=open;endFill=0;" edge="1" parent="1" source="OH_JTZmOgvnirMDcrv2M-4" target="OH_JTZmOgvnirMDcrv2M-7">
          <mxGeometry relative="1" as="geometry" />
        </mxCell>
        <mxCell id="OH_JTZmOgvnirMDcrv2M-10" value="[cliente quer informar CPF]" style="edgeLabel;html=1;align=center;verticalAlign=middle;resizable=0;points=[];fontFamily=Helvetica;fontSize=11;fontColor=default;labelBackgroundColor=default;" vertex="1" connectable="0" parent="OH_JTZmOgvnirMDcrv2M-9">
          <mxGeometry x="-0.76" y="-1" relative="1" as="geometry">
            <mxPoint x="71" y="4" as="offset" />
          </mxGeometry>
        </mxCell>
        <mxCell id="OH_JTZmOgvnirMDcrv2M-11" style="edgeStyle=orthogonalEdgeStyle;shape=connector;rounded=0;orthogonalLoop=1;jettySize=auto;html=1;strokeColor=default;align=center;verticalAlign=middle;fontFamily=Helvetica;fontSize=11;fontColor=default;labelBackgroundColor=default;endArrow=open;endFill=0;entryX=0;entryY=0.5;entryDx=0;entryDy=0;" edge="1" parent="1" source="OH_JTZmOgvnirMDcrv2M-4" target="OH_JTZmOgvnirMDcrv2M-12">
          <mxGeometry relative="1" as="geometry">
            <mxPoint x="330" y="280" as="targetPoint" />
            <Array as="points">
              <mxPoint x="241" y="145" />
              <mxPoint x="241" y="285" />
            </Array>
          </mxGeometry>
        </mxCell>
        <mxCell id="OH_JTZmOgvnirMDcrv2M-14" value="[Cliente não quer informar CPF]" style="edgeLabel;html=1;align=center;verticalAlign=middle;resizable=0;points=[];fontFamily=Helvetica;fontSize=11;fontColor=default;labelBackgroundColor=default;" vertex="1" connectable="0" parent="OH_JTZmOgvnirMDcrv2M-11">
          <mxGeometry x="-0.6789" y="-3" relative="1" as="geometry">
            <mxPoint x="-31" y="-12" as="offset" />
          </mxGeometry>
        </mxCell>
        <mxCell id="OH_JTZmOgvnirMDcrv2M-4" value="" style="rhombus;fontFamily=Helvetica;fontSize=11;fontColor=default;labelBackgroundColor=default;" vertex="1" parent="1">
          <mxGeometry x="362.5" y="130" width="45" height="30" as="geometry" />
        </mxCell>
        <mxCell id="OH_JTZmOgvnirMDcrv2M-13" style="edgeStyle=orthogonalEdgeStyle;shape=connector;rounded=0;orthogonalLoop=1;jettySize=auto;html=1;entryX=0.5;entryY=0;entryDx=0;entryDy=0;strokeColor=default;align=center;verticalAlign=middle;fontFamily=Helvetica;fontSize=11;fontColor=default;labelBackgroundColor=default;endArrow=open;endFill=0;" edge="1" parent="1" source="OH_JTZmOgvnirMDcrv2M-7" target="OH_JTZmOgvnirMDcrv2M-12">
          <mxGeometry relative="1" as="geometry" />
        </mxCell>
        <mxCell id="OH_JTZmOgvnirMDcrv2M-7" value="Cliente digita CPF" style="html=1;align=center;verticalAlign=top;rounded=1;absoluteArcSize=1;arcSize=10;dashed=0;whiteSpace=wrap;" vertex="1" parent="1">
          <mxGeometry x="315" y="190" width="140" height="40" as="geometry" />
        </mxCell>
        <mxCell id="OH_JTZmOgvnirMDcrv2M-17" style="edgeStyle=orthogonalEdgeStyle;shape=connector;rounded=0;orthogonalLoop=1;jettySize=auto;html=1;entryX=0.5;entryY=0;entryDx=0;entryDy=0;strokeColor=default;align=center;verticalAlign=middle;fontFamily=Helvetica;fontSize=11;fontColor=default;labelBackgroundColor=default;endArrow=open;endFill=0;" edge="1" parent="1" source="OH_JTZmOgvnirMDcrv2M-12" target="OH_JTZmOgvnirMDcrv2M-15">
          <mxGeometry relative="1" as="geometry" />
        </mxCell>
        <mxCell id="OH_JTZmOgvnirMDcrv2M-12" value="" style="rhombus;fontFamily=Helvetica;fontSize=11;fontColor=default;labelBackgroundColor=default;" vertex="1" parent="1">
          <mxGeometry x="362.5" y="270" width="45" height="30" as="geometry" />
        </mxCell>
        <mxCell id="OH_JTZmOgvnirMDcrv2M-18" style="edgeStyle=orthogonalEdgeStyle;shape=connector;rounded=0;orthogonalLoop=1;jettySize=auto;html=1;entryX=0.5;entryY=0;entryDx=0;entryDy=0;strokeColor=default;align=center;verticalAlign=middle;fontFamily=Helvetica;fontSize=11;fontColor=default;labelBackgroundColor=default;endArrow=open;endFill=0;" edge="1" parent="1" source="OH_JTZmOgvnirMDcrv2M-15" target="OH_JTZmOgvnirMDcrv2M-16">
          <mxGeometry relative="1" as="geometry" />
        </mxCell>
        <mxCell id="OH_JTZmOgvnirMDcrv2M-15" value="" style="rhombus;fontFamily=Helvetica;fontSize=11;fontColor=default;labelBackgroundColor=default;" vertex="1" parent="1">
          <mxGeometry x="362.5" y="350" width="45" height="30" as="geometry" />
        </mxCell>
        <mxCell id="OH_JTZmOgvnirMDcrv2M-16" value="Caixa faz leitura do codigo de barras do produtos" style="html=1;align=center;verticalAlign=top;rounded=1;absoluteArcSize=1;arcSize=10;dashed=0;whiteSpace=wrap;fontFamily=Helvetica;fontSize=11;fontColor=default;labelBackgroundColor=default;" vertex="1" parent="1">
          <mxGeometry x="315" y="430" width="140" height="40" as="geometry" />
        </mxCell>
        <mxCell id="OH_JTZmOgvnirMDcrv2M-25" style="edgeStyle=orthogonalEdgeStyle;shape=connector;rounded=0;orthogonalLoop=1;jettySize=auto;html=1;strokeColor=default;align=center;verticalAlign=middle;fontFamily=Helvetica;fontSize=11;fontColor=default;labelBackgroundColor=default;endArrow=open;endFill=0;" edge="1" parent="1" target="OH_JTZmOgvnirMDcrv2M-24">
          <mxGeometry relative="1" as="geometry">
            <mxPoint x="510" y="520" as="sourcePoint" />
            <Array as="points">
              <mxPoint x="510" y="510" />
              <mxPoint x="511" y="510" />
              <mxPoint x="511" y="540" />
              <mxPoint x="510" y="540" />
            </Array>
          </mxGeometry>
        </mxCell>
        <mxCell id="OH_JTZmOgvnirMDcrv2M-21" value="" style="html=1;points=[];perimeter=orthogonalPerimeter;fillColor=strokeColor;fontFamily=Helvetica;fontSize=11;fontColor=default;labelBackgroundColor=default;rotation=90;" vertex="1" parent="1">
          <mxGeometry x="390" y="390" width="5" height="250" as="geometry" />
        </mxCell>
        <mxCell id="OH_JTZmOgvnirMDcrv2M-22" value="Sistema exibe o preço do produto" style="html=1;align=center;verticalAlign=top;rounded=1;absoluteArcSize=1;arcSize=10;dashed=0;whiteSpace=wrap;fontFamily=Helvetica;fontSize=11;fontColor=default;labelBackgroundColor=default;" vertex="1" parent="1">
          <mxGeometry x="220" y="545" width="140" height="40" as="geometry" />
        </mxCell>
        <mxCell id="OH_JTZmOgvnirMDcrv2M-23" style="edgeStyle=orthogonalEdgeStyle;shape=connector;rounded=0;orthogonalLoop=1;jettySize=auto;html=1;entryX=0.45;entryY=0.1;entryDx=0;entryDy=0;entryPerimeter=0;strokeColor=default;align=center;verticalAlign=middle;fontFamily=Helvetica;fontSize=11;fontColor=default;labelBackgroundColor=default;endArrow=open;endFill=0;exitX=1.1;exitY=0.9;exitDx=0;exitDy=0;exitPerimeter=0;" edge="1" parent="1" source="OH_JTZmOgvnirMDcrv2M-21" target="OH_JTZmOgvnirMDcrv2M-22">
          <mxGeometry relative="1" as="geometry" />
        </mxCell>
        <mxCell id="OH_JTZmOgvnirMDcrv2M-24" value="Sistema atualiza o estoque do produto" style="html=1;align=center;verticalAlign=top;rounded=1;absoluteArcSize=1;arcSize=10;dashed=0;whiteSpace=wrap;fontFamily=Helvetica;fontSize=11;fontColor=default;labelBackgroundColor=default;" vertex="1" parent="1">
          <mxGeometry x="440" y="545" width="140" height="40" as="geometry" />
        </mxCell>
        <mxCell id="OH_JTZmOgvnirMDcrv2M-28" style="edgeStyle=orthogonalEdgeStyle;shape=connector;rounded=0;orthogonalLoop=1;jettySize=auto;html=1;entryX=0.3;entryY=0.53;entryDx=0;entryDy=0;entryPerimeter=0;strokeColor=default;align=center;verticalAlign=middle;fontFamily=Helvetica;fontSize=11;fontColor=default;labelBackgroundColor=default;endArrow=open;endFill=0;" edge="1" parent="1" source="OH_JTZmOgvnirMDcrv2M-16" target="OH_JTZmOgvnirMDcrv2M-21">
          <mxGeometry relative="1" as="geometry" />
        </mxCell>
        <mxCell id="OH_JTZmOgvnirMDcrv2M-34" style="edgeStyle=orthogonalEdgeStyle;shape=connector;rounded=0;orthogonalLoop=1;jettySize=auto;html=1;entryX=0.5;entryY=0;entryDx=0;entryDy=0;strokeColor=default;align=center;verticalAlign=middle;fontFamily=Helvetica;fontSize=11;fontColor=default;labelBackgroundColor=default;endArrow=open;endFill=0;" edge="1" parent="1" source="OH_JTZmOgvnirMDcrv2M-29" target="OH_JTZmOgvnirMDcrv2M-32">
          <mxGeometry relative="1" as="geometry" />
        </mxCell>
        <mxCell id="OH_JTZmOgvnirMDcrv2M-29" value="" style="html=1;points=[];perimeter=orthogonalPerimeter;fillColor=strokeColor;fontFamily=Helvetica;fontSize=11;fontColor=default;labelBackgroundColor=default;rotation=90;" vertex="1" parent="1">
          <mxGeometry x="395" y="545" width="5" height="250" as="geometry" />
        </mxCell>
        <mxCell id="OH_JTZmOgvnirMDcrv2M-30" style="edgeStyle=orthogonalEdgeStyle;shape=connector;rounded=0;orthogonalLoop=1;jettySize=auto;html=1;entryX=-0.1;entryY=0.314;entryDx=0;entryDy=0;entryPerimeter=0;strokeColor=default;align=center;verticalAlign=middle;fontFamily=Helvetica;fontSize=11;fontColor=default;labelBackgroundColor=default;endArrow=open;endFill=0;" edge="1" parent="1" source="OH_JTZmOgvnirMDcrv2M-24" target="OH_JTZmOgvnirMDcrv2M-29">
          <mxGeometry relative="1" as="geometry" />
        </mxCell>
        <mxCell id="OH_JTZmOgvnirMDcrv2M-31" style="edgeStyle=orthogonalEdgeStyle;shape=connector;rounded=0;orthogonalLoop=1;jettySize=auto;html=1;entryX=-0.3;entryY=0.658;entryDx=0;entryDy=0;entryPerimeter=0;strokeColor=default;align=center;verticalAlign=middle;fontFamily=Helvetica;fontSize=11;fontColor=default;labelBackgroundColor=default;endArrow=open;endFill=0;" edge="1" parent="1" source="OH_JTZmOgvnirMDcrv2M-22" target="OH_JTZmOgvnirMDcrv2M-29">
          <mxGeometry relative="1" as="geometry" />
        </mxCell>
        <mxCell id="OH_JTZmOgvnirMDcrv2M-35" style="edgeStyle=orthogonalEdgeStyle;shape=connector;rounded=0;orthogonalLoop=1;jettySize=auto;html=1;entryX=1;entryY=0.5;entryDx=0;entryDy=0;strokeColor=default;align=center;verticalAlign=middle;fontFamily=Helvetica;fontSize=11;fontColor=default;labelBackgroundColor=default;endArrow=open;endFill=0;" edge="1" parent="1" source="OH_JTZmOgvnirMDcrv2M-32" target="OH_JTZmOgvnirMDcrv2M-15">
          <mxGeometry relative="1" as="geometry">
            <Array as="points">
              <mxPoint x="640" y="755" />
              <mxPoint x="640" y="365" />
            </Array>
          </mxGeometry>
        </mxCell>
        <mxCell id="OH_JTZmOgvnirMDcrv2M-37" value="" style="edgeStyle=orthogonalEdgeStyle;shape=connector;rounded=0;orthogonalLoop=1;jettySize=auto;html=1;strokeColor=default;align=center;verticalAlign=middle;fontFamily=Helvetica;fontSize=11;fontColor=default;labelBackgroundColor=default;endArrow=open;endFill=0;" edge="1" parent="1" source="OH_JTZmOgvnirMDcrv2M-32" target="OH_JTZmOgvnirMDcrv2M-36">
          <mxGeometry relative="1" as="geometry" />
        </mxCell>
        <mxCell id="OH_JTZmOgvnirMDcrv2M-38" value="[não há mais produtos]" style="edgeLabel;html=1;align=center;verticalAlign=middle;resizable=0;points=[];fontFamily=Helvetica;fontSize=11;fontColor=default;labelBackgroundColor=default;" vertex="1" connectable="0" parent="OH_JTZmOgvnirMDcrv2M-37">
          <mxGeometry x="0.5667" relative="1" as="geometry">
            <mxPoint x="-82" y="-7" as="offset" />
          </mxGeometry>
        </mxCell>
        <mxCell id="OH_JTZmOgvnirMDcrv2M-32" value="" style="rhombus;fontFamily=Helvetica;fontSize=11;fontColor=default;labelBackgroundColor=default;" vertex="1" parent="1">
          <mxGeometry x="375" y="740" width="45" height="30" as="geometry" />
        </mxCell>
        <mxCell id="OH_JTZmOgvnirMDcrv2M-40" style="edgeStyle=orthogonalEdgeStyle;shape=connector;rounded=0;orthogonalLoop=1;jettySize=auto;html=1;exitX=0.5;exitY=1;exitDx=0;exitDy=0;entryX=0.5;entryY=0;entryDx=0;entryDy=0;strokeColor=default;align=center;verticalAlign=middle;fontFamily=Helvetica;fontSize=11;fontColor=default;labelBackgroundColor=default;endArrow=open;endFill=0;" edge="1" parent="1" source="OH_JTZmOgvnirMDcrv2M-36" target="OH_JTZmOgvnirMDcrv2M-39">
          <mxGeometry relative="1" as="geometry" />
        </mxCell>
        <mxCell id="OH_JTZmOgvnirMDcrv2M-36" value="Caixa pergunta sobre a forma de pagamento" style="html=1;align=center;verticalAlign=top;rounded=1;absoluteArcSize=1;arcSize=10;dashed=0;whiteSpace=wrap;fontFamily=Helvetica;fontSize=11;fontColor=default;labelBackgroundColor=default;" vertex="1" parent="1">
          <mxGeometry x="327.5" y="790" width="140" height="40" as="geometry" />
        </mxCell>
        <mxCell id="OH_JTZmOgvnirMDcrv2M-46" style="edgeStyle=orthogonalEdgeStyle;shape=connector;rounded=0;orthogonalLoop=1;jettySize=auto;html=1;entryX=0.5;entryY=0;entryDx=0;entryDy=0;strokeColor=default;align=center;verticalAlign=middle;fontFamily=Helvetica;fontSize=11;fontColor=default;labelBackgroundColor=default;endArrow=open;endFill=0;" edge="1" parent="1" source="OH_JTZmOgvnirMDcrv2M-39" target="OH_JTZmOgvnirMDcrv2M-41">
          <mxGeometry relative="1" as="geometry" />
        </mxCell>
        <mxCell id="OH_JTZmOgvnirMDcrv2M-39" value="Cliente informa a forma de pagamento" style="html=1;align=center;verticalAlign=top;rounded=1;absoluteArcSize=1;arcSize=10;dashed=0;whiteSpace=wrap;fontFamily=Helvetica;fontSize=11;fontColor=default;labelBackgroundColor=default;" vertex="1" parent="1">
          <mxGeometry x="327.5" y="860" width="140" height="40" as="geometry" />
        </mxCell>
        <mxCell id="OH_JTZmOgvnirMDcrv2M-41" value="" style="rhombus;fontFamily=Helvetica;fontSize=11;fontColor=default;labelBackgroundColor=default;fontStyle=1" vertex="1" parent="1">
          <mxGeometry x="382.5" y="940" width="30" height="30" as="geometry" />
        </mxCell>
        <mxCell id="OH_JTZmOgvnirMDcrv2M-49" value="caixa digita valor recebido" style="html=1;align=center;verticalAlign=top;rounded=1;absoluteArcSize=1;arcSize=10;dashed=0;whiteSpace=wrap;fontFamily=Helvetica;fontSize=11;fontColor=default;labelBackgroundColor=default;" vertex="1" parent="1">
          <mxGeometry x="550" y="980" width="130" height="30" as="geometry" />
        </mxCell>
        <mxCell id="OH_JTZmOgvnirMDcrv2M-420" style="edgeStyle=orthogonalEdgeStyle;shape=connector;rounded=0;orthogonalLoop=1;jettySize=auto;html=1;entryX=0.5;entryY=0;entryDx=0;entryDy=0;strokeColor=default;align=center;verticalAlign=middle;fontFamily=Helvetica;fontSize=11;fontColor=default;labelBackgroundColor=default;endArrow=open;endFill=0;" edge="1" parent="1" source="OH_JTZmOgvnirMDcrv2M-50" target="OH_JTZmOgvnirMDcrv2M-419">
          <mxGeometry relative="1" as="geometry" />
        </mxCell>
        <mxCell id="OH_JTZmOgvnirMDcrv2M-50" value="Sistema submete pagamento á administradora de cartões" style="html=1;align=center;verticalAlign=top;rounded=1;absoluteArcSize=1;arcSize=10;dashed=0;whiteSpace=wrap;fontFamily=Helvetica;fontSize=11;fontColor=default;labelBackgroundColor=default;" vertex="1" parent="1">
          <mxGeometry x="110" y="980" width="140" height="60" as="geometry" />
        </mxCell>
        <mxCell id="OH_JTZmOgvnirMDcrv2M-51" style="edgeStyle=orthogonalEdgeStyle;shape=connector;rounded=0;orthogonalLoop=1;jettySize=auto;html=1;entryX=0.572;entryY=0.043;entryDx=0;entryDy=0;entryPerimeter=0;strokeColor=default;align=center;verticalAlign=middle;fontFamily=Helvetica;fontSize=11;fontColor=default;labelBackgroundColor=default;endArrow=open;endFill=0;" edge="1" parent="1" source="OH_JTZmOgvnirMDcrv2M-41" target="OH_JTZmOgvnirMDcrv2M-49">
          <mxGeometry relative="1" as="geometry" />
        </mxCell>
        <mxCell id="OH_JTZmOgvnirMDcrv2M-53" value="[pagamento em dinheiro]" style="edgeLabel;html=1;align=center;verticalAlign=middle;resizable=0;points=[];fontFamily=Helvetica;fontSize=11;fontColor=default;labelBackgroundColor=default;" vertex="1" connectable="0" parent="OH_JTZmOgvnirMDcrv2M-51">
          <mxGeometry x="-0.0953" y="3" relative="1" as="geometry">
            <mxPoint as="offset" />
          </mxGeometry>
        </mxCell>
        <mxCell id="OH_JTZmOgvnirMDcrv2M-52" style="edgeStyle=orthogonalEdgeStyle;shape=connector;rounded=0;orthogonalLoop=1;jettySize=auto;html=1;entryX=0.45;entryY=0.009;entryDx=0;entryDy=0;entryPerimeter=0;strokeColor=default;align=center;verticalAlign=middle;fontFamily=Helvetica;fontSize=11;fontColor=default;labelBackgroundColor=default;endArrow=open;endFill=0;" edge="1" parent="1" source="OH_JTZmOgvnirMDcrv2M-41" target="OH_JTZmOgvnirMDcrv2M-50">
          <mxGeometry relative="1" as="geometry" />
        </mxCell>
        <mxCell id="OH_JTZmOgvnirMDcrv2M-54" value="[pagamento em cartão]" style="edgeLabel;html=1;align=center;verticalAlign=middle;resizable=0;points=[];fontFamily=Helvetica;fontSize=11;fontColor=default;labelBackgroundColor=default;" vertex="1" connectable="0" parent="OH_JTZmOgvnirMDcrv2M-52">
          <mxGeometry x="0.0769" y="1" relative="1" as="geometry">
            <mxPoint as="offset" />
          </mxGeometry>
        </mxCell>
        <mxCell id="OH_JTZmOgvnirMDcrv2M-422" style="edgeStyle=orthogonalEdgeStyle;shape=connector;rounded=0;orthogonalLoop=1;jettySize=auto;html=1;strokeColor=default;align=center;verticalAlign=middle;fontFamily=Helvetica;fontSize=11;fontColor=default;labelBackgroundColor=default;endArrow=open;endFill=0;" edge="1" parent="1" source="OH_JTZmOgvnirMDcrv2M-417" target="OH_JTZmOgvnirMDcrv2M-421">
          <mxGeometry relative="1" as="geometry" />
        </mxCell>
        <mxCell id="OH_JTZmOgvnirMDcrv2M-417" value="Sistema calcula o troco" style="html=1;align=center;verticalAlign=top;rounded=1;absoluteArcSize=1;arcSize=10;dashed=0;whiteSpace=wrap;fontFamily=Helvetica;fontSize=11;fontColor=default;labelBackgroundColor=default;" vertex="1" parent="1">
          <mxGeometry x="550" y="1050" width="130" height="30" as="geometry" />
        </mxCell>
        <mxCell id="OH_JTZmOgvnirMDcrv2M-418" style="edgeStyle=orthogonalEdgeStyle;shape=connector;rounded=0;orthogonalLoop=1;jettySize=auto;html=1;entryX=0.5;entryY=0;entryDx=0;entryDy=0;strokeColor=default;align=center;verticalAlign=middle;fontFamily=Helvetica;fontSize=11;fontColor=default;labelBackgroundColor=default;endArrow=open;endFill=0;" edge="1" parent="1" source="OH_JTZmOgvnirMDcrv2M-49" target="OH_JTZmOgvnirMDcrv2M-417">
          <mxGeometry relative="1" as="geometry" />
        </mxCell>
        <mxCell id="OH_JTZmOgvnirMDcrv2M-423" style="edgeStyle=orthogonalEdgeStyle;shape=connector;rounded=0;orthogonalLoop=1;jettySize=auto;html=1;entryX=0;entryY=0.5;entryDx=0;entryDy=0;strokeColor=default;align=center;verticalAlign=middle;fontFamily=Helvetica;fontSize=11;fontColor=default;labelBackgroundColor=default;endArrow=open;endFill=0;" edge="1" parent="1" source="OH_JTZmOgvnirMDcrv2M-419" target="OH_JTZmOgvnirMDcrv2M-421">
          <mxGeometry relative="1" as="geometry" />
        </mxCell>
        <mxCell id="OH_JTZmOgvnirMDcrv2M-424" value="[pagamento aprovado]" style="edgeLabel;html=1;align=center;verticalAlign=middle;resizable=0;points=[];fontFamily=Helvetica;fontSize=11;fontColor=default;labelBackgroundColor=default;" vertex="1" connectable="0" parent="OH_JTZmOgvnirMDcrv2M-423">
          <mxGeometry x="-0.8549" relative="1" as="geometry">
            <mxPoint x="44" as="offset" />
          </mxGeometry>
        </mxCell>
        <mxCell id="OH_JTZmOgvnirMDcrv2M-419" value="" style="rhombus;fontFamily=Helvetica;fontSize=11;fontColor=default;labelBackgroundColor=default;" vertex="1" parent="1">
          <mxGeometry x="165" y="1080" width="30" height="30" as="geometry" />
        </mxCell>
        <mxCell id="OH_JTZmOgvnirMDcrv2M-429" style="edgeStyle=orthogonalEdgeStyle;shape=connector;rounded=0;orthogonalLoop=1;jettySize=auto;html=1;entryX=0.5;entryY=0;entryDx=0;entryDy=0;strokeColor=default;align=center;verticalAlign=middle;fontFamily=Helvetica;fontSize=11;fontColor=default;labelBackgroundColor=default;endArrow=open;endFill=0;" edge="1" parent="1" source="OH_JTZmOgvnirMDcrv2M-421" target="OH_JTZmOgvnirMDcrv2M-428">
          <mxGeometry relative="1" as="geometry" />
        </mxCell>
        <mxCell id="OH_JTZmOgvnirMDcrv2M-421" value="" style="rhombus;fontFamily=Helvetica;fontSize=11;fontColor=default;labelBackgroundColor=default;" vertex="1" parent="1">
          <mxGeometry x="600" y="1100" width="30" height="30" as="geometry" />
        </mxCell>
        <mxCell id="OH_JTZmOgvnirMDcrv2M-435" style="edgeStyle=orthogonalEdgeStyle;shape=connector;rounded=0;orthogonalLoop=1;jettySize=auto;html=1;entryX=0.5;entryY=0;entryDx=0;entryDy=0;strokeColor=default;align=center;verticalAlign=middle;fontFamily=Helvetica;fontSize=11;fontColor=default;labelBackgroundColor=default;endArrow=open;endFill=0;" edge="1" parent="1" source="OH_JTZmOgvnirMDcrv2M-425" target="OH_JTZmOgvnirMDcrv2M-432">
          <mxGeometry relative="1" as="geometry" />
        </mxCell>
        <mxCell id="OH_JTZmOgvnirMDcrv2M-425" value="sistema cancela a venda" style="html=1;align=center;verticalAlign=top;rounded=1;absoluteArcSize=1;arcSize=10;dashed=0;whiteSpace=wrap;fontFamily=Helvetica;fontSize=11;fontColor=default;labelBackgroundColor=default;" vertex="1" parent="1">
          <mxGeometry x="100" y="1140" width="140" height="30" as="geometry" />
        </mxCell>
        <mxCell id="OH_JTZmOgvnirMDcrv2M-426" style="edgeStyle=orthogonalEdgeStyle;shape=connector;rounded=0;orthogonalLoop=1;jettySize=auto;html=1;entryX=0.567;entryY=-0.047;entryDx=0;entryDy=0;entryPerimeter=0;strokeColor=default;align=center;verticalAlign=middle;fontFamily=Helvetica;fontSize=11;fontColor=default;labelBackgroundColor=default;endArrow=open;endFill=0;" edge="1" parent="1" source="OH_JTZmOgvnirMDcrv2M-419" target="OH_JTZmOgvnirMDcrv2M-425">
          <mxGeometry relative="1" as="geometry" />
        </mxCell>
        <mxCell id="OH_JTZmOgvnirMDcrv2M-427" value="[pagamento não aprovado]" style="edgeLabel;html=1;align=center;verticalAlign=middle;resizable=0;points=[];fontFamily=Helvetica;fontSize=11;fontColor=default;labelBackgroundColor=default;" vertex="1" connectable="0" parent="OH_JTZmOgvnirMDcrv2M-426">
          <mxGeometry x="0.0366" y="-2" relative="1" as="geometry">
            <mxPoint x="-68" y="-9" as="offset" />
          </mxGeometry>
        </mxCell>
        <mxCell id="OH_JTZmOgvnirMDcrv2M-434" style="edgeStyle=orthogonalEdgeStyle;shape=connector;rounded=0;orthogonalLoop=1;jettySize=auto;html=1;entryX=1;entryY=0.5;entryDx=0;entryDy=0;strokeColor=default;align=center;verticalAlign=middle;fontFamily=Helvetica;fontSize=11;fontColor=default;labelBackgroundColor=default;endArrow=open;endFill=0;" edge="1" parent="1" source="OH_JTZmOgvnirMDcrv2M-428" target="OH_JTZmOgvnirMDcrv2M-432">
          <mxGeometry relative="1" as="geometry" />
        </mxCell>
        <mxCell id="OH_JTZmOgvnirMDcrv2M-428" value="Sistema imprime cupom fiscal" style="html=1;align=center;verticalAlign=top;rounded=1;absoluteArcSize=1;arcSize=10;dashed=0;whiteSpace=wrap;fontFamily=Helvetica;fontSize=11;fontColor=default;labelBackgroundColor=default;" vertex="1" parent="1">
          <mxGeometry x="545" y="1215" width="140" height="40" as="geometry" />
        </mxCell>
        <mxCell id="OH_JTZmOgvnirMDcrv2M-432" value="" style="ellipse;html=1;shape=endState;fillColor=strokeColor;fontFamily=Helvetica;fontSize=11;fontColor=default;labelBackgroundColor=default;" vertex="1" parent="1">
          <mxGeometry x="155" y="1220" width="30" height="30" as="geometry" />
        </mxCell>
      </root>
    </mxGraphModel>
  </diagram>
</mxfile>
